<svg xmlns="http://www.w3.org/2000/svg" viewBox="0 0 48 48">
  <defs>
    <linearGradient id="b" x1="0" y1="0" x2="0.4" y2="1">
      <stop offset="0" stop-color="#f4f1ff"/>
      <stop offset="0.6" stop-color="#dcd6ff"/>
      <stop offset="1" stop-color="#c3e9f6"/>
    </linearGradient>
    <linearGradient id="g" x1="0" y1="0" x2="1" y2="1">
      <stop offset="0" stop-color="#a78bfa"/>
      <stop offset="0.5" stop-color="#818cf8"/>
      <stop offset="1" stop-color="#22d3ee"/>
    </linearGradient>
  </defs>
  <rect width="48" height="48" rx="11" fill="#0d0d15"/>
  <path d="M10 39 L10 21 C10 13.3 16.3 7 24 7 C31.7 7 38 13.3 38 21 L38 39 Q34.5 43.5 31 39 Q27.5 43.5 24 39 Q20.5 43.5 17 39 Q13.5 43.5 10 39 Z"
        fill="url(#b)" stroke="url(#g)" stroke-width="1.4" stroke-linejoin="round"/>
  <path d="M8.5 21 A15.5 15.5 0 0 1 39.5 21" fill="none" stroke="url(#g)" stroke-width="2.4" stroke-linecap="round"/>
  <rect x="5.4" y="18.5" width="5.6" height="9" rx="2.8" fill="url(#g)"/>
  <rect x="37" y="18.5" width="5.6" height="9" rx="2.8" fill="url(#g)"/>
  <ellipse cx="14.5" cy="27" rx="2.1" ry="1.25" fill="#f9a8d4" opacity="0.75"/>
  <ellipse cx="33.5" cy="27" rx="2.1" ry="1.25" fill="#f9a8d4" opacity="0.75"/>
  <ellipse cx="17.6" cy="22.2" rx="2.7" ry="3.6" fill="#2a2340"/>
  <ellipse cx="30.4" cy="22.2" rx="2.7" ry="3.6" fill="#2a2340"/>
  <circle cx="16.6" cy="20.6" r="1.1" fill="#fff"/>
  <circle cx="29.4" cy="20.6" r="1.1" fill="#fff"/>
  <path d="M22.2 26.6 Q24 28.4 25.8 26.6" fill="none" stroke="#2a2340" stroke-width="1.2" stroke-linecap="round"/>
  <path d="M40 9 l0.9 2.1 2.1 0.9 -2.1 0.9 -0.9 2.1 -0.9 -2.1 -2.1 -0.9 2.1 -0.9 Z" fill="#67e8f9"/>
</svg>
